<svg width="28" height="28" viewBox="0 0 28 28" fill="none" xmlns="http://www.w3.org/2000/svg">
<g id="ph:house-fill">
<path id="Vector" d="M24.3601 12.637V22.7498C24.3599 23.067 24.274 23.3781 24.1114 23.6505C23.9488 23.9228 23.7156 24.146 23.4365 24.2967C23.1837 24.4336 22.9 24.5034 22.6125 24.4997H17.3563C17.1242 24.4997 16.9017 24.4075 16.7376 24.2434C16.5735 24.0793 16.4813 23.8568 16.4813 23.6247V18.3739C16.4813 18.1419 16.3891 17.9193 16.225 17.7552C16.0609 17.5911 15.8383 17.4989 15.6063 17.4989H12.1063C11.8742 17.4989 11.6516 17.5911 11.4876 17.7552C11.3235 17.9193 11.2313 18.1419 11.2313 18.3739V23.6247C11.2313 23.8568 11.1391 24.0793 10.975 24.2434C10.8109 24.4075 10.5883 24.4997 10.3563 24.4997H5.11032C4.86223 24.5003 4.61686 24.4479 4.39067 24.346C4.16448 24.2441 3.96268 24.095 3.79881 23.9087C3.51113 23.576 3.35509 23.1496 3.3601 22.7098V12.6369C3.36029 12.3931 3.41133 12.152 3.50996 11.929C3.60859 11.706 3.75263 11.5061 3.9329 11.3419L12.6821 3.38671C13.0035 3.09233 13.4235 2.92903 13.8593 2.92899C14.2952 2.92895 14.7152 3.09217 15.0366 3.38649L23.7874 11.342C23.9676 11.5062 24.1116 11.7062 24.2102 11.9291C24.3089 12.1521 24.3599 12.3932 24.3601 12.637Z" fill="black"/>
</g>
</svg>
