<svg width="24" height="24" viewBox="0 0 24 24" fill="none" xmlns="http://www.w3.org/2000/svg">
<path fill-rule="evenodd" clip-rule="evenodd" d="M2.439 0H8.374C9.721 0 10.813 1.092 10.813 2.439V8.373C10.813 9.72 9.721 10.812 8.374 10.812H2.439C1.093 10.812 0 9.72 0 8.373V2.439C0 1.092 1.093 0 2.439 0ZM15.4888 0H21.4238C22.7708 0 23.8628 1.092 23.8628 2.439V8.373C23.8628 9.72 22.7708 10.812 21.4238 10.812H15.4888C14.1428 10.812 13.0498 9.72 13.0498 8.373V2.439C13.0498 1.092 14.1428 0 15.4888 0ZM8.374 13.0498H2.439C1.093 13.0498 0 14.1418 0 15.4888V21.4228C0 22.7698 1.093 23.8618 2.439 23.8618H8.374C9.721 23.8618 10.813 22.7698 10.813 21.4228V15.4888C10.813 14.1418 9.721 13.0498 8.374 13.0498ZM15.4888 13.0498H21.4238C22.7708 13.0498 23.8628 14.1418 23.8628 15.4888V21.4228C23.8628 22.7698 22.7708 23.8618 21.4238 23.8618H15.4888C14.1428 23.8618 13.0498 22.7698 13.0498 21.4228V15.4888C13.0498 14.1418 14.1428 13.0498 15.4888 13.0498Z" fill="black"/>
</svg>
