<svg width="13" height="21" viewBox="0 0 13 21" fill="none" xmlns="http://www.w3.org/2000/svg">
<path d="M12.0049 1.11459C11.8791 0.993333 11.7297 0.897128 11.5651 0.831486C11.4006 0.765844 11.2242 0.732056 11.0461 0.732056C10.868 0.732056 10.6916 0.765844 10.5271 0.831486C10.3626 0.897128 10.2132 0.993333 10.0874 1.11459L1.08488 9.77084C0.984452 9.86721 0.904776 9.98168 0.850412 10.1077C0.796049 10.2337 0.768066 10.3688 0.768066 10.5052C0.768066 10.6416 0.796049 10.7767 0.850412 10.9027C0.904776 11.0288 0.984452 11.1432 1.08488 11.2396L10.0874 19.8958C10.6182 20.4063 11.474 20.4063 12.0049 19.8958C12.5357 19.3854 12.5357 18.5625 12.0049 18.0521L4.16155 10.5L12.0157 2.94792C12.5357 2.44792 12.5357 1.61459 12.0049 1.11459Z" fill="black"/>
</svg>
